<svg id="logosandtypes_com" xmlns="http://www.w3.org/2000/svg" viewBox="0 0 150 150.2"><path d="M0 .2h150v150H0V.2z" fill="none"/><path d="M35 48.8c-3 .1-5.7-1.9-6.6-4.7-1.1-3.2 0-6.7 1-9.8 1.6-5.1 3.7-11.5 8.1-15 10.6-8.3 16 22.9 16.7 28-3.4.2-6.8.5-10.2.8-3.1.2-6.1.7-9 .7" fill="#f25746"/><path d="M38.8 128.6c-3.6 0-6-4.3-7.4-7-2.5-5-4.5-11.1-5-16.6-.4-5.5 2.8-10.2 8.6-10 6.2.3 12.5 1.1 18.7 1.5-1 6.8-2.5 13.7-5 20.2-1.6 3.9-4.7 11.9-9.9 11.9" fill="#ba151b"/><path d="M138.2 73.4c0-23.3-12.6-46.4-33.2-58-7.5-4.4-13.4-6.5-14.6 3.9.9 29-13.9 30.3-36.6 30.8-7.1 0-13.7 1.7-20.7 1.2-12.4-2.8-7.3-17.6-3.6-25.1-25.3 25.6-25.8 68.1-1.7 93.9-2.2-6.4-5.4-13.8-3.3-20.9 3.3-8.6 10.7-6.9 17.6-6.3 7.4.6 14.3 1 21.7 1.4 34.6.4 24.7 30.7 28.2 37.6 3.7 9.2 16.6-2.3 20.7-4.9 16.2-12.7 26-33.2 25.5-53.6z" fill="#ed1c24"/></svg>